<svg width="285" height="26" viewBox="0 0 285 26" fill="none" xmlns="http://www.w3.org/2000/svg">
<rect x="0.5" width="148" height="26" rx="7" fill="#E0F3FF"/>
<path d="M17.306 10.16L15.948 11.042L15.696 10.72L17.866 8.76H18.566V18H17.306V10.16ZM23.8536 18.28C21.6136 18.28 20.4936 16.6467 20.4936 13.38C20.4936 10.1133 21.6136 8.48 23.8536 8.48C26.0936 8.48 27.2136 10.1133 27.2136 13.38C27.2136 16.6467 26.0936 18.28 23.8536 18.28ZM23.8536 17.72C24.3576 17.72 24.7496 17.566 25.0296 17.258C25.319 16.95 25.5196 16.4833 25.6316 15.858C25.753 15.2233 25.8136 14.3973 25.8136 13.38C25.8136 12.3627 25.753 11.5413 25.6316 10.916C25.5196 10.2813 25.319 9.81 25.0296 9.502C24.7496 9.194 24.3576 9.04 23.8536 9.04C23.3496 9.04 22.953 9.194 22.6636 9.502C22.3836 9.81 22.183 10.2813 22.0616 10.916C21.9496 11.5413 21.8936 12.3627 21.8936 13.38C21.8936 14.3973 21.9496 15.2233 22.0616 15.858C22.183 16.4833 22.3836 16.95 22.6636 17.258C22.953 17.566 23.3496 17.72 23.8536 17.72ZM32.0294 18.28C29.7894 18.28 28.6694 16.6467 28.6694 13.38C28.6694 10.1133 29.7894 8.48 32.0294 8.48C34.2694 8.48 35.3894 10.1133 35.3894 13.38C35.3894 16.6467 34.2694 18.28 32.0294 18.28ZM32.0294 17.72C32.5334 17.72 32.9254 17.566 33.2054 17.258C33.4947 16.95 33.6954 16.4833 33.8074 15.858C33.9287 15.2233 33.9894 14.3973 33.9894 13.38C33.9894 12.3627 33.9287 11.5413 33.8074 10.916C33.6954 10.2813 33.4947 9.81 33.2054 9.502C32.9254 9.194 32.5334 9.04 32.0294 9.04C31.5254 9.04 31.1287 9.194 30.8394 9.502C30.5594 9.81 30.3587 10.2813 30.2374 10.916C30.1254 11.5413 30.0694 12.3627 30.0694 13.38C30.0694 14.3973 30.1254 15.2233 30.2374 15.858C30.3587 16.4833 30.5594 16.95 30.8394 17.258C31.1287 17.566 31.5254 17.72 32.0294 17.72ZM38.5952 12.47C37.9605 12.47 37.4612 12.3067 37.0972 11.98C36.7425 11.644 36.5652 11.1773 36.5652 10.58C36.5652 9.98267 36.7425 9.52067 37.0972 9.194C37.4612 8.858 37.9605 8.69 38.5952 8.69C39.2299 8.69 39.7245 8.858 40.0792 9.194C40.4432 9.52067 40.6252 9.98267 40.6252 10.58C40.6252 11.1773 40.4432 11.644 40.0792 11.98C39.7245 12.3067 39.2299 12.47 38.5952 12.47ZM38.5952 11.98C39.3885 11.98 39.7852 11.5133 39.7852 10.58C39.7852 9.64667 39.3885 9.18 38.5952 9.18C37.8019 9.18 37.4052 9.64667 37.4052 10.58C37.4052 11.5133 37.8019 11.98 38.5952 11.98ZM43.0752 18.07C42.4405 18.07 41.9412 17.9067 41.5772 17.58C41.2225 17.244 41.0452 16.7773 41.0452 16.18C41.0452 15.5827 41.2225 15.1207 41.5772 14.794C41.9412 14.458 42.4405 14.29 43.0752 14.29C43.7099 14.29 44.2045 14.458 44.5592 14.794C44.9232 15.1207 45.1052 15.5827 45.1052 16.18C45.1052 16.7773 44.9232 17.244 44.5592 17.58C44.2045 17.9067 43.7099 18.07 43.0752 18.07ZM43.0752 17.58C43.8685 17.58 44.2652 17.1133 44.2652 16.18C44.2652 15.2467 43.8685 14.78 43.0752 14.78C42.2819 14.78 41.8852 15.2467 41.8852 16.18C41.8852 17.1133 42.2819 17.58 43.0752 17.58ZM43.4952 8.76H44.5452L38.1752 18H37.1252L43.4952 8.76ZM48.9248 19.638C49.3728 19.638 49.7041 19.4 49.9188 18.924C50.1428 18.448 50.2548 17.776 50.2548 16.908V8.76H51.5148V16.908C51.5148 17.636 51.4354 18.2147 51.2768 18.644C51.1274 19.0827 50.8661 19.4047 50.4928 19.61C50.1194 19.8153 49.5968 19.918 48.9248 19.918V19.638ZM56.3155 18.14C55.6808 18.14 55.1301 17.9907 54.6635 17.692C54.1968 17.384 53.8421 16.9687 53.5995 16.446C53.3568 15.9233 53.2355 15.3447 53.2355 14.71C53.2355 14.0753 53.3568 13.4967 53.5995 12.974C53.8421 12.4513 54.1968 12.0407 54.6635 11.742C55.1301 11.434 55.6808 11.28 56.3155 11.28C56.9501 11.28 57.5008 11.434 57.9675 11.742C58.4341 12.0407 58.7888 12.4513 59.0315 12.974C59.2741 13.4967 59.3955 14.0753 59.3955 14.71C59.3955 15.3447 59.2741 15.9233 59.0315 16.446C58.7888 16.9687 58.4341 17.384 57.9675 17.692C57.5008 17.9907 56.9501 18.14 56.3155 18.14ZM56.3155 17.58C56.6608 17.58 56.9641 17.454 57.2255 17.202C57.4961 16.95 57.7015 16.6047 57.8415 16.166C57.9908 15.7273 58.0655 15.242 58.0655 14.71C58.0655 14.178 57.9908 13.6927 57.8415 13.254C57.7015 12.8153 57.4961 12.47 57.2255 12.218C56.9641 11.966 56.6608 11.84 56.3155 11.84C55.9701 11.84 55.6621 11.966 55.3915 12.218C55.1301 12.47 54.9248 12.8153 54.7755 13.254C54.6355 13.6927 54.5655 14.178 54.5655 14.71C54.5655 15.242 54.6355 15.7273 54.7755 16.166C54.9248 16.6047 55.1301 16.95 55.3915 17.202C55.6621 17.454 55.9701 17.58 56.3155 17.58ZM64.1873 18.14C63.7113 18.14 63.3193 18.0653 63.0113 17.916C62.7033 17.7667 62.4653 17.5847 62.2973 17.37H62.2273L61.7373 18H61.0373V10.44C61.0373 9.964 60.972 9.614 60.8413 9.39C60.7106 9.15667 60.4493 9.04 60.0573 9.04H59.7773V8.76H61.0373C61.3826 8.76 61.6393 8.80667 61.8073 8.9C61.9846 8.984 62.1106 9.14267 62.1853 9.376C62.26 9.60933 62.2973 9.964 62.2973 10.44V11.7C62.568 11.5693 62.8386 11.4667 63.1093 11.392C63.38 11.3173 63.6926 11.28 64.0473 11.28C64.9153 11.28 65.5733 11.602 66.0213 12.246C66.4786 12.89 66.7073 13.7113 66.7073 14.71C66.7073 15.6993 66.488 16.5207 66.0493 17.174C65.6106 17.818 64.99 18.14 64.1873 18.14ZM63.7673 17.58C64.2993 17.58 64.7006 17.3187 64.9713 16.796C65.242 16.264 65.3773 15.5687 65.3773 14.71C65.3773 13.842 65.2326 13.1467 64.9433 12.624C64.6633 12.1013 64.2246 11.84 63.6273 11.84C63.4313 11.84 63.2306 11.8773 63.0253 11.952C62.82 12.0267 62.5773 12.1293 62.2973 12.26V16.74C62.4653 16.992 62.6613 17.1973 62.8853 17.356C63.1186 17.5053 63.4126 17.58 63.7673 17.58ZM76.2334 18.28C75.3188 18.28 74.4974 18.056 73.7694 17.608C73.0508 17.16 72.4861 16.5533 72.0754 15.788C71.6741 15.0133 71.4734 14.164 71.4734 13.24C71.4734 12.3533 71.6508 11.5507 72.0054 10.832C72.3601 10.104 72.8641 9.53 73.5174 9.11C74.1801 8.69 74.9454 8.48 75.8134 8.48C76.6161 8.48 77.3068 8.58733 77.8854 8.802C78.4734 9.00733 78.9028 9.27333 79.1734 9.6C79.3228 9.78667 79.4161 10.034 79.4534 10.342C79.5001 10.65 79.5234 11.0327 79.5234 11.49H79.2434C79.0661 10.6687 78.7301 10.0573 78.2354 9.656C77.7408 9.24533 77.0734 9.04 76.2334 9.04C75.4774 9.04 74.8474 9.24067 74.3434 9.642C73.8394 10.034 73.4661 10.5473 73.2234 11.182C72.9901 11.8167 72.8734 12.5027 72.8734 13.24C72.8734 14.8173 73.1814 15.9607 73.7974 16.67C74.4134 17.37 75.2254 17.72 76.2334 17.72C76.7094 17.72 77.1154 17.678 77.4514 17.594C77.7874 17.51 78.1048 17.3887 78.4034 17.23V14.794C78.4034 14.4767 78.4548 14.2013 78.5574 13.968C78.6601 13.7347 78.8794 13.5433 79.2154 13.394C79.5608 13.2353 80.0601 13.156 80.7134 13.156V13.436C80.2934 13.436 80.0134 13.5433 79.8734 13.758C79.7334 13.9727 79.6634 14.3087 79.6634 14.766V17.398C79.1594 17.706 78.6321 17.93 78.0814 18.07C77.5308 18.21 76.9148 18.28 76.2334 18.28ZM83.5096 18.14C83.2109 18.14 82.9076 18.0793 82.5996 17.958C82.2916 17.8273 82.0256 17.6173 81.8016 17.328C81.5869 17.0387 81.4796 16.656 81.4796 16.18C81.4796 15.4707 81.8063 14.9667 82.4596 14.668C83.1223 14.3693 83.9856 14.22 85.0496 14.22H85.4696C85.4696 13.3053 85.3436 12.68 85.0916 12.344C84.8396 12.008 84.4756 11.84 83.9996 11.84C83.5796 11.84 83.2436 11.9287 82.9916 12.106C82.7396 12.2833 82.5623 12.5913 82.4596 13.03H81.8296C81.8296 12.7127 81.8483 12.4653 81.8856 12.288C81.9229 12.1013 82.0209 11.9287 82.1796 11.77C82.3476 11.602 82.6229 11.4807 83.0056 11.406C83.3976 11.322 83.8223 11.28 84.2796 11.28C85.0356 11.28 85.6329 11.4853 86.0716 11.896C86.5103 12.2973 86.7296 13.072 86.7296 14.22V18H86.0296L85.5396 17.37H85.4696C85.3016 17.5847 85.0543 17.7667 84.7276 17.916C84.4009 18.0653 83.9949 18.14 83.5096 18.14ZM84.1396 17.51C84.4476 17.51 84.7043 17.4353 84.9096 17.286C85.1149 17.1367 85.3016 16.9313 85.4696 16.67V14.78H85.0496C84.3589 14.78 83.8129 14.9107 83.4116 15.172C83.0103 15.424 82.8096 15.76 82.8096 16.18C82.8096 16.6093 82.9356 16.9407 83.1876 17.174C83.4489 17.398 83.7663 17.51 84.1396 17.51ZM91.0758 18.14C90.3758 18.14 89.8018 17.9533 89.3538 17.58C88.9152 17.2067 88.6958 16.5533 88.6958 15.62V13.1C88.6958 12.624 88.6305 12.274 88.4998 12.05C88.3692 11.8167 88.1078 11.7 87.7158 11.7H87.5758V11.42H88.6958C89.0412 11.42 89.2978 11.4667 89.4658 11.56C89.6432 11.644 89.7692 11.8027 89.8438 12.036C89.9185 12.2693 89.9558 12.624 89.9558 13.1V15.62C89.9558 16.2733 90.1005 16.754 90.3898 17.062C90.6885 17.3607 91.0572 17.51 91.4958 17.51C91.9905 17.51 92.4572 17.2627 92.8958 16.768V11.42H94.1558V18H93.4558L92.9658 17.44H92.8958C92.6998 17.636 92.4432 17.804 92.1258 17.944C91.8178 18.0747 91.4678 18.14 91.0758 18.14ZM96.286 13.1C96.286 12.624 96.2207 12.274 96.09 12.05C95.9593 11.8167 95.698 11.7 95.306 11.7H95.166V11.42H96.286C96.6407 11.42 96.9067 11.4713 97.084 11.574C97.2707 11.6673 97.4013 11.826 97.476 12.05H97.546C97.714 11.8353 97.938 11.6533 98.218 11.504C98.5073 11.3547 98.8433 11.28 99.226 11.28C99.5993 11.28 99.8793 11.35 100.066 11.49C100.225 11.6113 100.388 11.8213 100.556 12.12L99.996 12.54C99.8933 12.4 99.744 12.2973 99.548 12.232C99.352 12.1573 99.128 12.12 98.876 12.12C98.596 12.12 98.3393 12.1853 98.106 12.316C97.8727 12.4373 97.686 12.6053 97.546 12.82V18H96.286V13.1ZM103.306 18.14C103.008 18.14 102.704 18.0793 102.396 17.958C102.088 17.8273 101.822 17.6173 101.598 17.328C101.384 17.0387 101.276 16.656 101.276 16.18C101.276 15.4707 101.603 14.9667 102.256 14.668C102.919 14.3693 103.782 14.22 104.846 14.22H105.266C105.266 13.3053 105.14 12.68 104.888 12.344C104.636 12.008 104.272 11.84 103.796 11.84C103.376 11.84 103.04 11.9287 102.788 12.106C102.536 12.2833 102.359 12.5913 102.256 13.03H101.626C101.626 12.7127 101.645 12.4653 101.682 12.288C101.72 12.1013 101.818 11.9287 101.976 11.77C102.144 11.602 102.42 11.4807 102.802 11.406C103.194 11.322 103.619 11.28 104.076 11.28C104.832 11.28 105.43 11.4853 105.868 11.896C106.307 12.2973 106.526 13.072 106.526 14.22V18H105.826L105.336 17.37H105.266C105.098 17.5847 104.851 17.7667 104.524 17.916C104.198 18.0653 103.792 18.14 103.306 18.14ZM103.936 17.51C104.244 17.51 104.501 17.4353 104.706 17.286C104.912 17.1367 105.098 16.9313 105.266 16.67V14.78H104.846C104.156 14.78 103.61 14.9107 103.208 15.172C102.807 15.424 102.606 15.76 102.606 16.18C102.606 16.6093 102.732 16.9407 102.984 17.174C103.246 17.398 103.563 17.51 103.936 17.51ZM108.689 13.1C108.689 12.624 108.623 12.274 108.493 12.05C108.362 11.8167 108.101 11.7 107.709 11.7H107.429V11.42H108.689C109.034 11.42 109.295 11.4667 109.473 11.56C109.659 11.6533 109.795 11.7933 109.879 11.98H109.949C110.145 11.784 110.397 11.6207 110.705 11.49C111.022 11.35 111.377 11.28 111.769 11.28C112.469 11.28 113.038 11.4667 113.477 11.84C113.925 12.2133 114.149 12.8667 114.149 13.8V18H112.889V13.8C112.889 13.1467 112.739 12.6707 112.441 12.372C112.151 12.064 111.787 11.91 111.349 11.91C110.854 11.91 110.387 12.1573 109.949 12.652V18H108.689V13.1ZM118.04 18.14C117.517 18.14 117.107 17.9907 116.808 17.692C116.509 17.3933 116.36 16.936 116.36 16.32V11.98H115.38V11.42H116.36V10.16L117.06 9.32H117.62V11.42H119.3V11.98H117.62V16.32C117.62 17.16 117.947 17.58 118.6 17.58C118.824 17.58 119.011 17.5567 119.16 17.51C119.319 17.4633 119.482 17.3933 119.65 17.3L119.79 17.58C119.575 17.7387 119.337 17.874 119.076 17.986C118.815 18.0887 118.469 18.14 118.04 18.14ZM123.386 18.14C122.752 18.14 122.215 17.9907 121.776 17.692C121.338 17.384 121.006 16.9733 120.782 16.46C120.558 15.9373 120.446 15.354 120.446 14.71C120.446 14.0753 120.558 13.4967 120.782 12.974C121.006 12.4513 121.328 12.0407 121.748 11.742C122.178 11.434 122.677 11.28 123.246 11.28C124.189 11.28 124.889 11.546 125.346 12.078C125.813 12.6007 126.046 13.3613 126.046 14.36L126.018 14.92H121.776C121.776 15.704 121.944 16.3433 122.28 16.838C122.616 17.3327 123.078 17.58 123.666 17.58C124.105 17.58 124.474 17.4867 124.772 17.3C125.08 17.1133 125.365 16.8333 125.626 16.46L125.906 16.67C125.598 17.1833 125.239 17.5567 124.828 17.79C124.418 18.0233 123.937 18.14 123.386 18.14ZM124.716 14.36C124.716 13.5387 124.595 12.9133 124.352 12.484C124.11 12.0547 123.741 11.84 123.246 11.84C122.966 11.84 122.714 11.952 122.49 12.176C122.266 12.3907 122.089 12.6893 121.958 13.072C121.837 13.4547 121.776 13.884 121.776 14.36H124.716ZM130.222 18.14C129.588 18.14 129.051 17.9907 128.612 17.692C128.174 17.384 127.842 16.9733 127.618 16.46C127.394 15.9373 127.282 15.354 127.282 14.71C127.282 14.0753 127.394 13.4967 127.618 12.974C127.842 12.4513 128.164 12.0407 128.584 11.742C129.014 11.434 129.513 11.28 130.082 11.28C131.025 11.28 131.725 11.546 132.182 12.078C132.649 12.6007 132.882 13.3613 132.882 14.36L132.854 14.92H128.612C128.612 15.704 128.78 16.3433 129.116 16.838C129.452 17.3327 129.914 17.58 130.502 17.58C130.941 17.58 131.31 17.4867 131.608 17.3C131.916 17.1133 132.201 16.8333 132.462 16.46L132.742 16.67C132.434 17.1833 132.075 17.5567 131.664 17.79C131.254 18.0233 130.773 18.14 130.222 18.14ZM131.552 14.36C131.552 13.5387 131.431 12.9133 131.188 12.484C130.946 12.0547 130.577 11.84 130.082 11.84C129.802 11.84 129.55 11.952 129.326 12.176C129.102 12.3907 128.925 12.6893 128.794 13.072C128.673 13.4547 128.612 13.884 128.612 14.36H131.552Z" fill="#1D78B0"/>
<rect x="160.5" width="124" height="26" rx="7" fill="#E0F3FF"/>
<path d="M176.984 10.44C176.984 9.964 176.919 9.614 176.788 9.39C176.657 9.15667 176.396 9.04 176.004 9.04H175.724V8.76H176.984C177.329 8.76 177.586 8.80667 177.754 8.9C177.931 8.984 178.057 9.14267 178.132 9.376C178.207 9.60933 178.244 9.964 178.244 10.44V17.44H183.214V18H176.984V10.44ZM185.057 10.58C184.842 10.58 184.655 10.4913 184.497 10.314C184.347 10.1367 184.273 9.92667 184.273 9.684C184.273 9.488 184.329 9.334 184.441 9.222C184.562 9.11 184.721 9.054 184.917 9.054C185.131 9.054 185.313 9.14267 185.463 9.32C185.621 9.49733 185.701 9.70733 185.701 9.95C185.701 10.146 185.64 10.3 185.519 10.412C185.407 10.524 185.253 10.58 185.057 10.58ZM184.525 13.1C184.525 12.624 184.459 12.274 184.329 12.05C184.198 11.8167 183.937 11.7 183.545 11.7H183.265V11.42H184.525C184.87 11.42 185.127 11.4667 185.295 11.56C185.472 11.644 185.598 11.8027 185.673 12.036C185.747 12.2693 185.785 12.624 185.785 13.1V18H184.525V13.1ZM187.046 11.98V11.42H188.026V11C188.026 9.41333 188.843 8.62 190.476 8.62C191.064 8.62 191.461 8.69 191.666 8.83C191.825 8.95133 191.988 9.16133 192.156 9.46L191.736 9.81C191.456 9.39 191.013 9.18 190.406 9.18C189.659 9.18 189.286 9.78667 189.286 11V11.42H191.246V11.98H189.286V18H188.026V11.98H187.046ZM194.875 18.14C194.24 18.14 193.703 17.9907 193.265 17.692C192.826 17.384 192.495 16.9733 192.271 16.46C192.047 15.9373 191.935 15.354 191.935 14.71C191.935 14.0753 192.047 13.4967 192.271 12.974C192.495 12.4513 192.817 12.0407 193.237 11.742C193.666 11.434 194.165 11.28 194.735 11.28C195.677 11.28 196.377 11.546 196.835 12.078C197.301 12.6007 197.535 13.3613 197.535 14.36L197.507 14.92H193.265C193.265 15.704 193.433 16.3433 193.769 16.838C194.105 17.3327 194.567 17.58 195.155 17.58C195.593 17.58 195.962 17.4867 196.261 17.3C196.569 17.1133 196.853 16.8333 197.115 16.46L197.395 16.67C197.087 17.1833 196.727 17.5567 196.317 17.79C195.906 18.0233 195.425 18.14 194.875 18.14ZM196.205 14.36C196.205 13.5387 196.083 12.9133 195.841 12.484C195.598 12.0547 195.229 11.84 194.735 11.84C194.455 11.84 194.203 11.952 193.979 12.176C193.755 12.3907 193.577 12.6893 193.447 13.072C193.325 13.4547 193.265 13.884 193.265 14.36H196.205ZM201.095 18.14C200.572 18.14 200.161 17.9907 199.863 17.692C199.564 17.3933 199.415 16.936 199.415 16.32V11.98H198.435V11.42H199.415V10.16L200.115 9.32H200.675V11.42H202.355V11.98H200.675V16.32C200.675 17.16 201.001 17.58 201.655 17.58C201.879 17.58 202.065 17.5567 202.215 17.51C202.373 17.4633 202.537 17.3933 202.705 17.3L202.845 17.58C202.63 17.7387 202.392 17.874 202.131 17.986C201.869 18.0887 201.524 18.14 201.095 18.14ZM204.621 10.58C204.406 10.58 204.22 10.4913 204.061 10.314C203.912 10.1367 203.837 9.92667 203.837 9.684C203.837 9.488 203.893 9.334 204.005 9.222C204.126 9.11 204.285 9.054 204.481 9.054C204.696 9.054 204.878 9.14267 205.027 9.32C205.186 9.49733 205.265 9.70733 205.265 9.95C205.265 10.146 205.204 10.3 205.083 10.412C204.971 10.524 204.817 10.58 204.621 10.58ZM204.089 13.1C204.089 12.624 204.024 12.274 203.893 12.05C203.762 11.8167 203.501 11.7 203.109 11.7H202.829V11.42H204.089C204.434 11.42 204.691 11.4667 204.859 11.56C205.036 11.644 205.162 11.8027 205.237 12.036C205.312 12.2693 205.349 12.624 205.349 13.1V18H204.089V13.1ZM207.534 13.1C207.534 12.624 207.469 12.274 207.338 12.05C207.208 11.8167 206.946 11.7 206.554 11.7H206.274V11.42H207.534C207.88 11.42 208.141 11.4667 208.318 11.56C208.505 11.6533 208.64 11.7933 208.724 11.98H208.794C208.99 11.784 209.242 11.6207 209.55 11.49C209.868 11.35 210.222 11.28 210.614 11.28C211.006 11.28 211.342 11.3547 211.622 11.504C211.902 11.644 212.126 11.896 212.294 12.26C212.537 11.952 212.845 11.714 213.218 11.546C213.601 11.3687 213.993 11.28 214.394 11.28C214.992 11.28 215.468 11.4667 215.822 11.84C216.177 12.2133 216.354 12.8667 216.354 13.8V18H215.094V13.8C215.094 13.128 215.001 12.6473 214.814 12.358C214.628 12.0593 214.348 11.91 213.974 11.91C213.713 11.91 213.438 12.008 213.148 12.204C212.859 12.3907 212.644 12.596 212.504 12.82C212.551 12.96 212.574 13.2867 212.574 13.8V18H211.314V13.8C211.314 13.128 211.221 12.6473 211.034 12.358C210.848 12.0593 210.568 11.91 210.194 11.91C209.7 11.91 209.233 12.1573 208.794 12.652V18H207.534V13.1ZM220.879 18.14C220.244 18.14 219.707 17.9907 219.269 17.692C218.83 17.384 218.499 16.9733 218.275 16.46C218.051 15.9373 217.939 15.354 217.939 14.71C217.939 14.0753 218.051 13.4967 218.275 12.974C218.499 12.4513 218.821 12.0407 219.241 11.742C219.67 11.434 220.169 11.28 220.739 11.28C221.681 11.28 222.381 11.546 222.839 12.078C223.305 12.6007 223.539 13.3613 223.539 14.36L223.511 14.92H219.269C219.269 15.704 219.437 16.3433 219.773 16.838C220.109 17.3327 220.571 17.58 221.159 17.58C221.597 17.58 221.966 17.4867 222.265 17.3C222.573 17.1133 222.857 16.8333 223.119 16.46L223.399 16.67C223.091 17.1833 222.731 17.5567 222.321 17.79C221.91 18.0233 221.429 18.14 220.879 18.14ZM222.209 14.36C222.209 13.5387 222.087 12.9133 221.845 12.484C221.602 12.0547 221.233 11.84 220.739 11.84C220.459 11.84 220.207 11.952 219.983 12.176C219.759 12.3907 219.581 12.6893 219.451 13.072C219.329 13.4547 219.269 13.884 219.269 14.36H222.209ZM236.353 18.07C235.905 18.07 235.461 17.9487 235.023 17.706C234.584 17.454 234.234 16.9687 233.973 16.25L233.623 15.34H229.703L228.583 18H227.953L231.873 8.76H232.293L235.373 16.25C235.606 16.7913 235.825 17.1647 236.031 17.37C236.236 17.566 236.53 17.6827 236.913 17.72V18C236.745 18.0467 236.558 18.07 236.353 18.07ZM233.343 14.78L231.663 10.72L229.913 14.78H233.343ZM240.241 18.14C239.569 18.14 239 17.9907 238.533 17.692C238.076 17.384 237.731 16.9733 237.497 16.46C237.273 15.9373 237.161 15.354 237.161 14.71C237.161 14.066 237.273 13.4873 237.497 12.974C237.731 12.4513 238.076 12.0407 238.533 11.742C239 11.434 239.569 11.28 240.241 11.28C241.268 11.28 241.945 11.4433 242.271 11.77C242.43 11.9287 242.528 12.1247 242.565 12.358C242.603 12.582 242.621 12.9927 242.621 13.59H242.341C242.304 13.0113 242.122 12.5773 241.795 12.288C241.469 11.9893 241.044 11.84 240.521 11.84C239.849 11.84 239.341 12.106 238.995 12.638C238.659 13.17 238.491 13.8607 238.491 14.71C238.491 15.5593 238.659 16.25 238.995 16.782C239.341 17.314 239.849 17.58 240.521 17.58C240.997 17.58 241.389 17.4913 241.697 17.314C242.005 17.1273 242.29 16.8427 242.551 16.46L242.831 16.67C242.523 17.1927 242.159 17.5707 241.739 17.804C241.319 18.028 240.82 18.14 240.241 18.14ZM247.009 18.14C246.337 18.14 245.767 17.9907 245.301 17.692C244.843 17.384 244.498 16.9733 244.265 16.46C244.041 15.9373 243.929 15.354 243.929 14.71C243.929 14.066 244.041 13.4873 244.265 12.974C244.498 12.4513 244.843 12.0407 245.301 11.742C245.767 11.434 246.337 11.28 247.009 11.28C248.035 11.28 248.712 11.4433 249.039 11.77C249.197 11.9287 249.295 12.1247 249.333 12.358C249.37 12.582 249.389 12.9927 249.389 13.59H249.109C249.071 13.0113 248.889 12.5773 248.563 12.288C248.236 11.9893 247.811 11.84 247.289 11.84C246.617 11.84 246.108 12.106 245.763 12.638C245.427 13.17 245.259 13.8607 245.259 14.71C245.259 15.5593 245.427 16.25 245.763 16.782C246.108 17.314 246.617 17.58 247.289 17.58C247.765 17.58 248.157 17.4913 248.465 17.314C248.773 17.1273 249.057 16.8427 249.319 16.46L249.599 16.67C249.291 17.1927 248.927 17.5707 248.507 17.804C248.087 18.028 247.587 18.14 247.009 18.14ZM253.636 18.14C253.002 18.14 252.465 17.9907 252.026 17.692C251.588 17.384 251.256 16.9733 251.032 16.46C250.808 15.9373 250.696 15.354 250.696 14.71C250.696 14.0753 250.808 13.4967 251.032 12.974C251.256 12.4513 251.578 12.0407 251.998 11.742C252.428 11.434 252.927 11.28 253.496 11.28C254.439 11.28 255.139 11.546 255.596 12.078C256.063 12.6007 256.296 13.3613 256.296 14.36L256.268 14.92H252.026C252.026 15.704 252.194 16.3433 252.53 16.838C252.866 17.3327 253.328 17.58 253.916 17.58C254.355 17.58 254.724 17.4867 255.022 17.3C255.33 17.1133 255.615 16.8333 255.876 16.46L256.156 16.67C255.848 17.1833 255.489 17.5567 255.078 17.79C254.668 18.0233 254.187 18.14 253.636 18.14ZM254.966 14.36C254.966 13.5387 254.845 12.9133 254.602 12.484C254.36 12.0547 253.991 11.84 253.496 11.84C253.216 11.84 252.964 11.952 252.74 12.176C252.516 12.3907 252.339 12.6893 252.208 13.072C252.087 13.4547 252.026 13.884 252.026 14.36H254.966ZM260.108 18.14C259.035 18.14 258.312 17.9533 257.938 17.58C257.78 17.4213 257.682 17.244 257.644 17.048C257.607 16.8427 257.588 16.53 257.588 16.11H257.868C257.952 16.5767 258.153 16.9407 258.47 17.202C258.797 17.454 259.25 17.58 259.828 17.58C260.342 17.58 260.724 17.4913 260.976 17.314C261.238 17.1367 261.368 16.8987 261.368 16.6C261.368 16.3293 261.266 16.096 261.06 15.9C260.864 15.704 260.547 15.5173 260.108 15.34L259.268 14.99C258.708 14.766 258.288 14.5047 258.008 14.206C257.728 13.9073 257.588 13.5387 257.588 13.1C257.588 12.5307 257.803 12.0873 258.232 11.77C258.662 11.4433 259.217 11.28 259.898 11.28C260.925 11.28 261.625 11.4667 261.998 11.84C262.157 11.9987 262.255 12.176 262.292 12.372C262.33 12.568 262.348 12.8807 262.348 13.31H262.068C261.994 12.8433 261.798 12.484 261.48 12.232C261.163 11.9707 260.729 11.84 260.178 11.84C259.74 11.84 259.394 11.9333 259.142 12.12C258.9 12.2973 258.778 12.5307 258.778 12.82C258.778 13.3053 259.152 13.702 259.898 14.01L260.738 14.36C261.373 14.6213 261.835 14.9013 262.124 15.2C262.414 15.4893 262.558 15.8627 262.558 16.32C262.558 16.8893 262.33 17.3373 261.872 17.664C261.415 17.9813 260.827 18.14 260.108 18.14ZM266.356 18.14C265.283 18.14 264.56 17.9533 264.186 17.58C264.028 17.4213 263.93 17.244 263.892 17.048C263.855 16.8427 263.836 16.53 263.836 16.11H264.116C264.2 16.5767 264.401 16.9407 264.718 17.202C265.045 17.454 265.498 17.58 266.076 17.58C266.59 17.58 266.972 17.4913 267.224 17.314C267.486 17.1367 267.616 16.8987 267.616 16.6C267.616 16.3293 267.514 16.096 267.308 15.9C267.112 15.704 266.795 15.5173 266.356 15.34L265.516 14.99C264.956 14.766 264.536 14.5047 264.256 14.206C263.976 13.9073 263.836 13.5387 263.836 13.1C263.836 12.5307 264.051 12.0873 264.48 11.77C264.91 11.4433 265.465 11.28 266.146 11.28C267.173 11.28 267.873 11.4667 268.246 11.84C268.405 11.9987 268.503 12.176 268.54 12.372C268.578 12.568 268.596 12.8807 268.596 13.31H268.316C268.242 12.8433 268.046 12.484 267.728 12.232C267.411 11.9707 266.977 11.84 266.426 11.84C265.988 11.84 265.642 11.9333 265.39 12.12C265.148 12.2973 265.026 12.5307 265.026 12.82C265.026 13.3053 265.4 13.702 266.146 14.01L266.986 14.36C267.621 14.6213 268.083 14.9013 268.372 15.2C268.662 15.4893 268.806 15.8627 268.806 16.32C268.806 16.8893 268.578 17.3373 268.12 17.664C267.663 17.9813 267.075 18.14 266.356 18.14Z" fill="#1D78B0"/>
</svg>
